<?xml version="1.0" encoding="UTF-8"?><!DOCTYPE svg PUBLIC "-//W3C//DTD SVG 1.1//EN" "http://www.w3.org/Graphics/SVG/1.1/DTD/svg11.dtd"><svg xmlns="http://www.w3.org/2000/svg" xmlns:xlink="http://www.w3.org/1999/xlink" version="1.1" id="Layer_1" x="0px" y="0px" width="127.999px" height="128px" viewBox="0 0 127.999 128" xml:space="preserve"><style type="text/css"><![CDATA[
	.st0{fill:#231F20;}
]]></style><path class="st0" d="M55.436 38.818c-1.083-.779-2.326-1.193-3.77-1.244-1.873.052-3.395.787-4.648 2.246-1.091 1.614-1.597 3.366-1.545 5.354 0 2.761.819 5.661 2.437 8.647a11.47 11.47 0 0 0 2.934 3.428c1.136.893 2.398 1.326 3.86 1.326 1.803-.068 3.296-.697 4.523-1.922.574-.877.947-1.782 1.11-2.693.104-.967.161-1.845.161-2.542 0-3.006-.784-6.087-2.332-9.158-.697-1.417-1.615-2.572-2.73-3.442z" fill="#231F20"/><path class="st0" d="M45.892 75.392c-.629.288-1.32.732-2.029 1.31-.622.546-1.18 1.27-1.632 2.127-.517.894-.769 1.969-.769 3.23 0 2.514 1.12 4.537 3.426 6.185 2.274 1.709 5.444 2.594 9.439 2.646 3.525-.051 6.244-.822 8.054-2.294 1.72-1.409 2.557-3.176 2.557-5.397 0-1.811-.572-3.343-1.75-4.687-1.297-1.319-3.402-3.013-6.226-4.997-.41-.033-.889-.049-1.454-.049-.041 0-.082-.003-.123-.008a2.707 2.707 0 0 0-.303-.011c-.521 0-1.408.057-2.638.171a33.793 33.793 0 0 0-4.924 1.103c-.332.129-.899.362-1.628.671z" fill="#231F20"/><path class="st0" d="M64 7.989c-30.885 0-56.011 25.126-56.011 56.01 0 30.885 25.126 56.012 56.011 56.012 30.884 0 56.01-25.127 56.01-56.012 0-30.884-25.126-56.01-56.01-56.01zM34.105 78.335c.96-1.988 2.712-3.754 5.198-5.235 2.72-1.552 5.595-2.595 8.562-3.108 2.093-.307 3.884-.514 5.432-.627-.216-.353-.42-.713-.612-1.08-.589-.929-.908-2.131-.908-3.505 0-.785.109-1.47.326-2.036-.385.021-.759.03-1.121.03-4.581-.057-8.134-1.537-10.571-4.4-2.491-2.605-3.773-5.734-3.773-9.257 0-4.221 1.786-8.087 5.31-11.491 2.457-2.024 4.996-3.335 7.607-3.949 2.523-.515 4.903-.772 7.102-.772h16.115a.999.999 0 0 1 .504 1.863l-4.977 2.906a1 1 0 0 1-.504.136h-2.246a16.497 16.497 0 0 1 1.611 2.159c.59.915 1.123 2.014 1.579 3.258.398 1.317.591 2.804.591 4.473-.048 3.086-.752 5.603-2.093 7.497a22.693 22.693 0 0 1-1.999 2.429 83.23 83.23 0 0 1-2.441 2.226c-.371.389-.778.905-1.15 1.481a2.801 2.801 0 0 0-.561 1.735c0 .59.158 1.054.483 1.416.422.529.806.964 1.181 1.338l2.663 2.174a28.722 28.722 0 0 1 4.629 4.766c1.338 1.891 2.034 4.325 2.092 7.268 0 4.204-1.855 7.95-5.517 11.153-3.734 3.263-9.157 4.972-16.12 5.082h-.025c-5.854-.054-10.321-1.347-13.278-3.842-3.022-2.368-4.568-5.287-4.568-8.653 0-1.651.498-3.478 1.479-5.435zm61.499-31.533a1 1 0 0 1-1 1h-7.455v7.454a1 1 0 0 1-1 1h-4.098a1 1 0 0 1-1-1v-7.454h-7.454a1 1 0 0 1-1-1v-4.097a1 1 0 0 1 1-1h7.454v-7.458a1 1 0 0 1 1-1h4.098a1 1 0 0 1 1 1v7.458h7.455a1 1 0 0 1 1 1v4.097z" fill="#231F20"/><metadata><rdf:RDF xmlns:rdf="http://www.w3.org/1999/02/22-rdf-syntax-ns#" xmlns:rdfs="http://www.w3.org/2000/01/rdf-schema#" xmlns:dc="http://purl.org/dc/elements/1.1/"><rdf:Description about="https://iconscout.com/legal#licenses" dc:title="social,networks,networks-" dc:description="social,networks,networks-" dc:publisher="Iconscout" dc:date="2018-01-30" dc:format="image/svg+xml" dc:language="en"><dc:creator><rdf:Bag><rdf:li>Roundicons.com</rdf:li></rdf:Bag></dc:creator></rdf:Description></rdf:RDF></metadata></svg>